<?xml version="1.0" encoding="utf-8"?>
<!-- Generator: Adobe Illustrator 21.0.0, SVG Export Plug-In . SVG Version: 6.00 Build 0)  -->
<svg version="1.1" id="Capa_1" xmlns="http://www.w3.org/2000/svg" xmlns:xlink="http://www.w3.org/1999/xlink" x="0px" y="0px"
	 viewBox="0 0 250 250" style="enable-background:new 0 0 250 250;" xml:space="preserve">
<style type="text/css">
	.st0{fill:#EF3043;}
</style>
<g>
	<path class="st0" d="M125,249.6C56.3,249.6,0.4,193.7,0.4,125S56.3,0.4,125,0.4S249.6,56.3,249.6,125S193.7,249.6,125,249.6z
		 M125,7.4C60.1,7.4,7.4,60.1,7.4,125c0,64.9,52.8,117.6,117.6,117.6S242.6,189.9,242.6,125C242.6,60.1,189.9,7.4,125,7.4z"/>
</g>
<g>
	<path class="st0" d="M145.2,170.6v5.2c0,4.1-3,7.6-7,8.1l-1.3,4.7c-0.7,2.6-3,4.3-5.7,4.3h-12.7c-2.7,0-5-1.8-5.7-4.3l-1.2-4.7
		c-4-0.6-7-4-7-8.2v-5.2c0-2.8,2.2-5,5-5h30.5C143,165.6,145.2,167.8,145.2,170.6L145.2,170.6z"/>
	<path class="st0" d="M124.7,57c-24.3,0.2-43.7,19.9-43.4,44.2c0.1,11.6,4.7,22.1,12.2,29.8c5.8,5.9,9.5,13.7,10.8,21.8
		c0.5,3.5,3.6,6.1,7.1,6.1h27.1c3.6,0,6.6-2.6,7.2-6.1c1.2-8.1,5-15.8,10.7-21.8c7.6-7.9,12.3-18.6,12.3-30.3
		C168.7,76.5,149,56.8,124.7,57z M125,79.2c-11.9,0-21.7,9.7-21.7,21.7c0,2.7-2.2,4.9-4.9,4.9c-2.7,0-4.9-2.2-4.9-4.9
		c0-17.4,14.2-31.6,31.6-31.6c2.7,0,4.9,2.2,4.9,4.9C129.9,77,127.7,79.2,125,79.2z"/>
</g>
</svg>
