<?xml version="1.0" encoding="utf-8"?>
<!-- Generator: Adobe Illustrator 21.0.0, SVG Export Plug-In . SVG Version: 6.00 Build 0)  -->
<svg version="1.1" id="Capa_1" xmlns="http://www.w3.org/2000/svg" xmlns:xlink="http://www.w3.org/1999/xlink" x="0px" y="0px"
	 viewBox="0 0 250 250" style="enable-background:new 0 0 250 250;" xml:space="preserve">
<style type="text/css">
	.st0{fill:#EF3043;}
</style>
<g>
	<path class="st0" d="M125,249.6C56.3,249.6,0.4,193.7,0.4,125S56.3,0.4,125,0.4S249.6,56.3,249.6,125S193.7,249.6,125,249.6z
		 M125,7.4C60.1,7.4,7.4,60.1,7.4,125c0,64.9,52.8,117.6,117.6,117.6S242.6,189.9,242.6,125C242.6,60.1,189.9,7.4,125,7.4z"/>
</g>
<g>
	<path class="st0" d="M120.9,51.1v84.4c0,2.2,1.8,4.1,4.1,4.1c2.3,0,4.1-1.9,4.1-4.1V51.1c0-2.3-1.8-4.1-4.1-4.1
		C122.7,47,120.9,48.8,120.9,51.1L120.9,51.1z"/>
	<path class="st0" d="M152.1,67.1c-2.8-1.2-6.3,0.3-7.4,3.1c-1.2,2.9,0.2,6.2,3.1,7.4c22.2,9.2,36.5,30.7,36.5,54.7
		c0,32.7-26.6,59.3-59.3,59.3c-32.7,0-59.3-26.6-59.3-59.3c0-22.8,12.7-43.2,33.2-53.2c2.8-1.4,4-4.8,2.6-7.6
		c-1.4-2.7-4.8-4-7.6-2.6c-24.4,12-39.6,36.3-39.6,63.5c0,39,31.7,70.6,70.6,70.6c39,0,70.6-31.7,70.6-70.6
		C195.6,103.7,178.6,78.1,152.1,67.1L152.1,67.1z"/>
</g>
</svg>
