<?xml version="1.0" encoding="utf-8"?>
<!-- Generator: Adobe Illustrator 21.0.0, SVG Export Plug-In . SVG Version: 6.00 Build 0)  -->
<svg version="1.1" id="Capa_1" xmlns="http://www.w3.org/2000/svg" xmlns:xlink="http://www.w3.org/1999/xlink" x="0px" y="0px"
	 viewBox="0 0 250 250" style="enable-background:new 0 0 250 250;" xml:space="preserve">
<style type="text/css">
	.st0{fill:#EF3043;}
</style>
<g>
	<path class="st0" d="M125,249.6C56.3,249.6,0.4,193.7,0.4,125S56.3,0.4,125,0.4S249.6,56.3,249.6,125S193.7,249.6,125,249.6z
		 M125,7.4C60.1,7.4,7.4,60.1,7.4,125c0,64.9,52.8,117.6,117.6,117.6S242.6,189.9,242.6,125C242.6,60.1,189.9,7.4,125,7.4z"/>
</g>
<path class="st0" d="M101.8,78.9v77.8c-3.9-2.8-8.9-4.5-14.3-4.5c-12.4,0-22.5,8.9-22.5,19.8c0,10.9,10.1,19.8,22.5,19.8
	s22.5-8.9,22.5-19.8v-67.6l66.8-16.5v50.3c-3.9-2.8-8.9-4.5-14.3-4.5c-12.4,0-22.5,8.9-22.5,19.8c0,10.9,10.1,19.8,22.5,19.8
	s22.5-8.9,22.5-19.8V58.3L101.8,78.9z"/>
</svg>
