<?xml version="1.0" encoding="utf-8"?>
<!-- Generator: Adobe Illustrator 21.0.0, SVG Export Plug-In . SVG Version: 6.00 Build 0)  -->
<svg version="1.1" id="Capa_1" xmlns="http://www.w3.org/2000/svg" xmlns:xlink="http://www.w3.org/1999/xlink" x="0px" y="0px"
	 viewBox="0 0 250 250" style="enable-background:new 0 0 250 250;" xml:space="preserve">
<style type="text/css">
	.st0{fill:#EF3043;}
</style>
<g>
	<path class="st0" d="M125,249.6C56.3,249.6,0.4,193.7,0.4,125S56.3,0.4,125,0.4S249.6,56.3,249.6,125S193.7,249.6,125,249.6z
		 M125,7.4C60.1,7.4,7.4,60.1,7.4,125c0,64.9,52.8,117.6,117.6,117.6S242.6,189.9,242.6,125C242.6,60.1,189.9,7.4,125,7.4z"/>
</g>
<path class="st0" d="M168.1,112.4h-2.6v-11.9c0-22.1-17.5-40.5-39.4-40.9c-0.6,0-1.8,0-2.4,0c-21.9,0.4-39.4,18.8-39.4,40.9v11.9
	h-2.6c-3.9,0-7.1,4.1-7.1,9.1v59.8c0,5,3.2,9.1,7.1,9.1h86.3c3.9,0,7.1-4.1,7.1-9.1v-59.8C175.3,116.5,172.1,112.4,168.1,112.4z
	 M133.1,151.3v18.1c0,2.1-1.7,3.8-3.8,3.8h-8.6c-2.1,0-3.8-1.8-3.8-3.8v-18.1c-2-2-3.2-4.7-3.2-7.7c0-5.7,4.4-10.7,10.1-10.9
	c0.6,0,1.8,0,2.4,0c5.6,0.2,10.1,5.2,10.1,10.9C136.3,146.6,135.1,149.4,133.1,151.3z M148.8,112.4h-47.6v-11.9
	c0-13.1,10.7-24,23.8-24s23.8,10.9,23.8,24V112.4z"/>
</svg>
