<?xml version="1.0" encoding="utf-8"?>
<!-- Generator: Adobe Illustrator 21.0.0, SVG Export Plug-In . SVG Version: 6.00 Build 0)  -->
<svg version="1.1" id="Capa_1" xmlns="http://www.w3.org/2000/svg" xmlns:xlink="http://www.w3.org/1999/xlink" x="0px" y="0px"
	 viewBox="0 0 250 250" style="enable-background:new 0 0 250 250;" xml:space="preserve">
<style type="text/css">
	.st0{fill:#EF3043;}
</style>
<g>
	<path class="st0" d="M125,249.6C56.3,249.6,0.4,193.7,0.4,125S56.3,0.4,125,0.4S249.6,56.3,249.6,125S193.7,249.6,125,249.6z
		 M125,7.4C60.1,7.4,7.4,60.1,7.4,125c0,64.9,52.8,117.6,117.6,117.6S242.6,189.9,242.6,125C242.6,60.1,189.9,7.4,125,7.4z"/>
</g>
<g>
	<path class="st0" d="M66.1,83.9h88.4v-6.3h-80L66.1,83.9z M66.1,83.9"/>
	<path class="st0" d="M160.8,77.6v6.3h21.1l-8.4-6.3H160.8z M160.8,77.6"/>
	<path class="st0" d="M154.5,92.4V86h-80l-8.4,6.3H154.5z M154.5,92.4"/>
	<path class="st0" d="M160.8,86v6.3h21.1l-8.4-6.3H160.8z M160.8,86"/>
	<path class="st0" d="M154.5,100.8v-6.3h-80l-8.4,6.3H154.5z M154.5,100.8"/>
	<path class="st0" d="M160.8,94.5v6.3h21.1l-8.4-6.3H160.8z M160.8,94.5"/>
	<path class="st0" d="M160.8,102.9v6.3h21.1l-8.4-6.3H160.8z M160.8,102.9"/>
	<path class="st0" d="M154.5,109.2v-6.3h-80l-8.4,6.3H154.5z M154.5,109.2"/>
	<path class="st0" d="M154.5,117.6v-6.3h-80l-8.4,6.3H154.5z M154.5,117.6"/>
	<path class="st0" d="M160.8,111.3v6.3h21.1l-8.4-6.3H160.8z M160.8,111.3"/>
	<path class="st0" d="M154.5,126v-6.3h-80l-8.4,6.3H154.5z M154.5,126"/>
	<path class="st0" d="M160.8,119.7v6.3h21.1l-8.4-6.3H160.8z M160.8,119.7"/>
	<path class="st0" d="M154.5,134.5v-6.3h-80l-8.4,6.3H154.5z M154.5,134.5"/>
	<path class="st0" d="M160.8,128.2v6.3h21.1l-8.4-6.3H160.8z M160.8,128.2"/>
	<path class="st0" d="M154.5,142.9v-6.3h-80l-8.4,6.3H154.5z M154.5,142.9"/>
	<path class="st0" d="M160.8,136.6v6.3h21.1l-8.4-6.3H160.8z M160.8,136.6"/>
	<path class="st0" d="M160.8,145v6.3h21.1l-8.4-6.3H160.8z M160.8,145"/>
	<path class="st0" d="M154.5,151.3V145h-80l-8.4,6.3H154.5z M154.5,151.3"/>
	<path class="st0" d="M160.8,153.4v6.3h21.1l-8.4-6.3H160.8z M160.8,153.4"/>
	<path class="st0" d="M154.5,159.7v-6.3h-80l-8.4,6.3H154.5z M154.5,159.7"/>
	<path class="st0" d="M152.8,168.2c0.4-0.8,0.9-1.5,1.7-2.1v-4.2h-80l-8.4,6.3H152.8z M152.8,168.2"/>
	<path class="st0" d="M160.8,161.8v4.2c0.7,0.5,1.3,1.3,1.7,2.1h19.4l-8.4-6.3H160.8z M160.8,161.8"/>
	<path class="st0" d="M162.9,170.3c0,2.9-2.4,5.3-5.3,5.3c-2.9,0-5.3-2.4-5.3-5.3H74.5l-8.4,6.3h115.8l-8.4-6.3H162.9z M162.9,170.3
		"/>
	<path class="st0" d="M74.5,178.7l-8.4,6.3h115.8l-8.4-6.3H74.5z M74.5,178.7"/>
	<path class="st0" d="M158.7,165.1V77.6h-2.1v87.5c0.3-0.1,0.7-0.1,1.1-0.1C158,165,158.3,165,158.7,165.1L158.7,165.1z
		 M158.7,165.1"/>
	<rect x="63.9" y="65" class="st0" width="122.1" height="10.5"/>
	<path class="st0" d="M155.3,168.2c-0.5,0.6-0.8,1.3-0.8,2.1c0,1.7,1.4,3.2,3.2,3.2c1.7,0,3.2-1.4,3.2-3.2c0-0.8-0.3-1.5-0.8-2.1
		c-0.4-0.4-0.8-0.7-1.3-0.9c-0.3-0.1-0.7-0.2-1-0.2c-0.4,0-0.7,0.1-1.1,0.2C156.1,167.5,155.6,167.8,155.3,168.2L155.3,168.2z
		 M155.3,168.2"/>
</g>
</svg>
