<?xml version="1.0" encoding="utf-8"?>
<!-- Generator: Adobe Illustrator 21.0.0, SVG Export Plug-In . SVG Version: 6.00 Build 0)  -->
<svg version="1.1" id="Capa_1" xmlns="http://www.w3.org/2000/svg" xmlns:xlink="http://www.w3.org/1999/xlink" x="0px" y="0px"
	 viewBox="0 0 250 250" style="enable-background:new 0 0 250 250;" xml:space="preserve">
<style type="text/css">
	.st0{fill:#EF3043;}
</style>
<g>
	<path class="st0" d="M125,249.6C56.3,249.6,0.4,193.7,0.4,125S56.3,0.4,125,0.4S249.6,56.3,249.6,125S193.7,249.6,125,249.6z
		 M125,7.4C60.1,7.4,7.4,60.1,7.4,125c0,64.9,52.8,117.6,117.6,117.6S242.6,189.9,242.6,125C242.6,60.1,189.9,7.4,125,7.4z"/>
</g>
<g>
	<path class="st0" d="M188.9,82.2l-2.3,0.7L174.3,84l-3.4,5.5l-2.5-0.8l-9.7-8.8l-1.4-4.6l-1.9-4.9l-6.1-5.5l-7.2-1.4l-0.2,3.3
		l7.1,6.9l3.5,4.1l-3.9,2l-3.2-0.9l-4.8-2l0.2-3.8l-6.2-2.6l-2.1,9l-6.3,1.4l0.6,5l8.2,1.6l1.4-8l6.8,1l3.1,1.8h5l3.5,6.9l9.1,9.3
		l-0.7,3.6l-7.4-1l-12.8,6.5l-9.2,11l-1.2,4.9h-3.3l-6.1-2.8l-6,2.8l1.5,6.3l2.6-3l4.6-0.1l-0.3,5.7l3.8,1.1l3.8,4.2l6.2-1.7
		l7.1,1.1l8.2,2.2l4.1,0.5l6.9,7.9l13.4,7.9l-8.6,16.5l-9.1,4.3l-3.5,9.4l-13.2,8.8l-1.4,5.1c33.8-8.1,58.9-38.4,58.9-74.7
		C201.9,109.2,197.1,94.4,188.9,82.2L188.9,82.2z M188.9,82.2"/>
	<path class="st0" d="M133.8,165.2l-5.6-10.4l5.1-10.7l-5.1-1.6l-5.8-5.8l-12.8-2.9l-4.3-8.9v5.3h-1.9l-11-14.9v-12.3l-8.1-13.1
		l-12.8,2.3H63l-4.4-2.9l5.5-4.4l-5.5,1.3C52,97.6,48.1,110.8,48.1,125c0,42.5,34.4,76.9,76.9,76.9c3.3,0,6.5-0.3,9.7-0.7l-0.8-9.3
		c0,0,3.5-13.8,3.5-14.3C137.4,177.1,133.8,165.2,133.8,165.2L133.8,165.2z M133.8,165.2"/>
	<path class="st0" d="M76.7,72.9L90.3,71l6.3-3.5l7.1,2.1l11.3-0.6l3.9-6.1l5.7,0.9l13.7-1.3l3.8-4.2l5.4-3.6l7.5,1.1l2.8-0.4
		c-9.9-4.7-21-7.4-32.8-7.4c-23.9,0-45.2,10.9-59.3,28h0L76.7,72.9z M128.2,55.7l7.9-4.3l5,2.9l-7.3,5.5l-7,0.7l-3.1-2.1L128.2,55.7
		z M105,56.4l3.5,1.5l4.5-1.5l2.5,4.3L105,63.4l-5-3C99.9,60.5,104.9,57.3,105,56.4L105,56.4z M105,56.4"/>
</g>
</svg>
