<?xml version="1.0" encoding="utf-8"?>
<!-- Generator: Adobe Illustrator 21.0.0, SVG Export Plug-In . SVG Version: 6.00 Build 0)  -->
<svg version="1.1" id="Capa_1" xmlns="http://www.w3.org/2000/svg" xmlns:xlink="http://www.w3.org/1999/xlink" x="0px" y="0px"
	 viewBox="0 0 250 250" style="enable-background:new 0 0 250 250;" xml:space="preserve">
<style type="text/css">
	.st0{fill:#EF3043;}
</style>
<g>
	<path class="st0" d="M93.4,51.7c-1,1.7-4.8,3-9.7,3.3v22.5H136V55c-4.9-0.2-8.9-1.6-9.9-3.3H93.4z M93.4,51.7"/>
	<path class="st0" d="M171.1,183c-0.5,0-0.9,0-1.4,0.1c-6,1.2-14.3,2.4-22.5,2.4c-14.1,0-28.2-3.6-30.4-17.1h7.8v-9.9h2.7
		c3.6,0,6.5-2.9,7.4-6.4c2.8-11.6,10.8-28.4,10.8-28.4c1.4-1.8,2.3-4.1,2.3-6.6V90.8c0-5.9-4.8-10.7-10.7-10.7H82.7
		C76.8,80,72,84.9,72,90.8v26.3c0,2.5,0.9,4.7,2.3,6.6c0,0,8,16.8,10.7,28.4c0.8,3.5,3.8,6.4,7.4,6.4h2.8v9.9h8.3
		c2.2,23.4,23.9,29.9,45.5,29.9c8.6,0,17.1-1,24.3-2.4C181.1,194.4,178.4,183,171.1,183L171.1,183z M136,103.9h2.3v9.3h-3.7v-9.3
		H136z M94.3,113.2h-3.7v-3h-6.7v3h-3.7v-9.3h3.7v4h6.7v-4h3.7V113.2z M111.3,112.1c0,0.6-0.5,1.1-1.1,1.1H96.9V108h3.7v3.1h7.1
		v-4.6H96.9v-2.5h13.3c0.6,0,1.1,0.5,1.1,1.1V112.1z M114.1,103.9h16.8c0.6,0,1.1,0.5,1.1,1.1v8.2h-3.7v-6.7h-3.4v6.7h-3.7v-6.7
		h-3.4v6.7h-3.7V103.9z M114.1,103.9"/>
</g>
<g>
	<path class="st0" d="M125,249.6C56.3,249.6,0.4,193.7,0.4,125S56.3,0.4,125,0.4S249.6,56.3,249.6,125S193.7,249.6,125,249.6z
		 M125,7.4C60.1,7.4,7.4,60.1,7.4,125c0,64.9,52.8,117.6,117.6,117.6S242.6,189.9,242.6,125C242.6,60.1,189.9,7.4,125,7.4z"/>
</g>
</svg>
