<?xml version="1.0" encoding="utf-8"?>
<!-- Generator: Adobe Illustrator 21.0.0, SVG Export Plug-In . SVG Version: 6.00 Build 0)  -->
<svg version="1.1" id="Capa_1" xmlns="http://www.w3.org/2000/svg" xmlns:xlink="http://www.w3.org/1999/xlink" x="0px" y="0px"
	 viewBox="0 0 250 250" style="enable-background:new 0 0 250 250;" xml:space="preserve">
<style type="text/css">
	.st0{fill:#EF3043;}
</style>
<g>
	<path class="st0" d="M125,249.6C56.3,249.6,0.4,193.7,0.4,125S56.3,0.4,125,0.4S249.6,56.3,249.6,125S193.7,249.6,125,249.6z
		 M125,7.4C60.1,7.4,7.4,60.1,7.4,125c0,64.9,52.8,117.6,117.6,117.6S242.6,189.9,242.6,125C242.6,60.1,189.9,7.4,125,7.4z"/>
</g>
<g>
	<path class="st0" d="M171.2,95.8c0.5,0.5,1.3,0.8,2,0.8c1.6,0,2.8-1.3,2.8-2.8V68.3c0-1.6-1.3-2.8-2.8-2.8h-25.5
		c-1.1,0-2.2,0.7-2.6,1.8c-0.4,1.1-0.2,2.3,0.6,3.1L171.2,95.8z"/>
	<polygon class="st0" points="74,125.7 74,190.2 113.7,190.2 113.7,150.5 136.3,150.5 136.3,190.2 176,190.2 176,125.7 125,74.7 	
		"/>
	<path class="st0" d="M192.2,125.9L192.2,125.9L127,60.7c-1.1-1.1-2.9-1.1-4,0l-65.2,65.2c-1,1-1.2,2.7-0.1,3.9c1.3,1.3,3,1.1,4,0.1
		l0,0L125,66.7l63.2,63.2l0,0c1.1,1,2.9,1,3.9,0l0,0C193.2,128.8,193.3,127.1,192.2,125.9L192.2,125.9z"/>
</g>
</svg>
