<?xml version="1.0" encoding="utf-8"?>
<!-- Generator: Adobe Illustrator 21.0.0, SVG Export Plug-In . SVG Version: 6.00 Build 0)  -->
<svg version="1.1" id="Capa_1" xmlns="http://www.w3.org/2000/svg" xmlns:xlink="http://www.w3.org/1999/xlink" x="0px" y="0px"
	 viewBox="0 0 250 250" style="enable-background:new 0 0 250 250;" xml:space="preserve">
<style type="text/css">
	.st0{fill:#EF3043;}
</style>
<g>
	<path class="st0" d="M125,249.6C56.3,249.6,0.4,193.7,0.4,125S56.3,0.4,125,0.4S249.6,56.3,249.6,125S193.7,249.6,125,249.6z
		 M125,7.4C60.1,7.4,7.4,60.1,7.4,125c0,64.9,52.8,117.6,117.6,117.6S242.6,189.9,242.6,125C242.6,60.1,189.9,7.4,125,7.4z"/>
</g>
<g>
	<path class="st0" d="M156.5,180.7l-62.4-0.3l2.7-9.4l1.3-1.3H119v2c0,2.2,1.8,4,4,4h4c2.2,0,4-1.8,4-4v-2h22.2l1.5,1.2L156.5,180.7
		z"/>
	<path class="st0" d="M155.3,179H95.4l2.7-9.4H119v2c0,2.2,1.8,4,4,4h4c2.2,0,4-1.8,4-4v-2h22.2L155.3,179z"/>
	<path class="st0" d="M131,169.6v2c0,2.2-1.8,4-4,4h-4c-2.2,0-4-1.8-4-4v-2H131z"/>
	<rect x="119" y="160.6" class="st0" width="12" height="9"/>
	<path class="st0" d="M40.2,69.3v91.3H119v-2.7c0-0.3,0-0.6,0.1-0.8h-0.9v-2.7h2.9c0.6-0.3,1.2-0.5,1.9-0.5h4c0.7,0,1.3,0.2,1.9,0.5
		h2.9v2.7h-0.9c0.1,0.3,0.1,0.5,0.1,0.8v2.7h78.7V69.3H40.2z M206,150.6H44V72.7H206V150.6z"/>
	<path class="st0" d="M131,157.9v2.7h-12v-2.7c0-0.3,0-0.6,0.1-0.8h11.9C131,157.4,131,157.7,131,157.9z"/>
	<path class="st0" d="M128.9,154.4h-7.8c0.6-0.3,1.2-0.5,1.9-0.5h4C127.7,153.9,128.3,154.1,128.9,154.4z"/>
</g>
</svg>
